<svg width="24" height="24" viewBox="0 0 24 24" fill="none" xmlns="http://www.w3.org/2000/svg">
<path d="M18.375 17.0484L17.3334 7.24845C17.3334 6.63233 16.8561 6.1333 16.2668 6.1333H12.0001H7.73343C7.1441 6.1333 6.66676 6.63233 6.66676 7.24845L5.62516 17.0484C5.6097 17.1248 5.6001 17.2034 5.6001 17.2848C5.6001 17.9009 6.07743 18.4 6.66676 18.4H12.0001H17.3334C17.9228 18.4 18.4001 17.9009 18.4001 17.2848C18.4001 17.2034 18.3905 17.1248 18.375 17.0484ZM14.6668 8.86988V9.47876C14.6668 11.016 13.4705 12.2666 12.0001 12.2666C10.5297 12.2666 9.33343 11.016 9.33343 9.47876V8.86988C9.02356 8.75502 8.8001 8.44836 8.8001 8.08482C8.8001 7.62314 9.1585 7.24845 9.6001 7.24845C10.0417 7.24845 10.4001 7.62314 10.4001 8.08482V9.47876C10.4001 10.401 11.118 11.1515 12.0001 11.1515C12.8822 11.1515 13.6001 10.401 13.6001 9.47876V8.08482C13.6001 7.62314 13.9585 7.24845 14.4001 7.24845C14.8417 7.24845 15.2001 7.62314 15.2001 8.08482C15.2001 8.44836 14.9766 8.75502 14.6668 8.86988Z" fill="#222222"/>
</svg>
