<svg width="26" height="26" viewBox="0 0 26 26" fill="none" xmlns="http://www.w3.org/2000/svg">
<g clip-path="url(#clip0_24940_4932)">
<path d="M13.0001 16.4667C14.9147 16.4667 16.4668 14.9146 16.4668 13C16.4668 11.0854 14.9147 9.53333 13.0001 9.53333C11.0855 9.53333 9.53345 11.0854 9.53345 13C9.53345 14.9146 11.0855 16.4667 13.0001 16.4667Z" fill="white"/>
<path d="M9.75008 2.16663L7.76758 4.33329H4.33341C3.14175 4.33329 2.16675 5.30829 2.16675 6.49996V19.5C2.16675 20.6916 3.14175 21.6666 4.33341 21.6666H21.6667C22.8584 21.6666 23.8334 20.6916 23.8334 19.5V6.49996C23.8334 5.30829 22.8584 4.33329 21.6667 4.33329H18.2326L16.2501 2.16663H9.75008ZM13.0001 18.4166C10.0101 18.4166 7.58342 15.99 7.58342 13C7.58342 10.01 10.0101 7.58329 13.0001 7.58329C15.9901 7.58329 18.4167 10.01 18.4167 13C18.4167 15.99 15.9901 18.4166 13.0001 18.4166Z" fill="#222222"/>
</g>
<defs>
<clipPath id="clip0_24940_4932">
<rect width="26" height="26" fill="white"/>
</clipPath>
</defs>
</svg>
